<svg height="1024" viewBox="0 0 1024 1024" width="1024" xmlns="http://www.w3.org/2000/svg"><g fill="none" transform="translate(53)"><path d="m771 0h-620.553797c-81.5237346 0-148.446203 66.9467213-148.446203 148.5 0 81.553279 66.9224684 148.5 148.446203 148.5h620.553797z" fill="#4caf50"/><circle cx="769.5" cy="148.5" fill="#2e7d32" r="148.5"/><path d="m391.990654 377h-242.990654v297h241.775701c81.401869 0 148.224299-66.946721 148.224299-148.5s-65.607477-148.5-147.009346-148.5z" fill="#fbc02d"/><path d="m0 875.517073c0 81.543903 66.9467213 148.482927 148.5 148.482927 81.553279 0 148.5-66.939024 148.5-148.482927v-350.517073h-297z" fill="#e53935"/><path d="m148.5 377c-81.5532787 0-148.5 66.946721-148.5 148.5s66.9467213 148.5 148.5 148.5h148.5v-148.5c0-81.553279-66.946721-148.5-148.5-148.5z" fill="#fa7b17"/><path d="m918 525.37218c0-81.483082-66.946721-148.37218-148.5-148.37218s-148.5 66.889098-148.5 148.37218v350.25564c0 81.483082 66.946721 148.37218 148.5 148.37218s148.5-66.889098 148.5-148.37218z" fill="#1e88e5"/></g></svg>